<?xml version="1.0" encoding="utf-8"?>
<!-- Generator: Adobe Illustrator 19.2.1, SVG Export Plug-In . SVG Version: 6.00 Build 0)  -->
<svg version="1.1" id="Layer_1" xmlns="http://www.w3.org/2000/svg" xmlns:xlink="http://www.w3.org/1999/xlink" x="0px" y="0px"
	 viewBox="0 0 32 32" style="enable-background:new 0 0 32 32;" xml:space="preserve">
<style type="text/css">
	.st0{fill:#3C763D;}
</style>
<g>
	<g>
		<path class="st0" d="M16,0.7C7.6,0.7,0.9,7.5,0.9,15.9S7.6,31,16,31s15.1-6.8,15.1-15.1C31.1,7.5,24.4,0.7,16,0.7z M16,28.6
			c-7,0-12.7-5.7-12.7-12.7C3.3,8.8,9,3.1,16,3.1s12.7,5.7,12.7,12.7S23,28.6,16,28.6z"/>
		<path class="st0" d="M20.8,11l-7.1,7.1l-2.6-2.6c-0.5-0.5-1.2-0.5-1.7,0C9,16,9,16.8,9.4,17.2l3.5,3.5c0.2,0.2,0.6,0.4,0.9,0.4
			c0.3,0,0.6-0.1,0.9-0.4l7.9-7.9c0.5-0.5,0.5-1.2,0-1.7C22.1,10.5,21.3,10.5,20.8,11z"/>
	</g>
</g>
</svg>
