<svg xmlns="http://www.w3.org/2000/svg" viewBox="0 0 30.08 30.08"><defs><style>.cls-1{isolation:isolate;}.cls-2{fill:#8cc63f;fill-rule:evenodd;}</style></defs><title>icon-upgrade</title><g id="Shape_1" data-name="Shape 1" class="cls-1"><g id="Shape_1-2" data-name="Shape 1"><path class="cls-2" d="M16,1A15,15,0,1,0,31,16,15.06,15.06,0,0,0,16,1Zm0,28A13,13,0,1,1,29,16,13,13,0,0,1,16,29ZM16.55,8.94a0.75,0.75,0,0,0-1.06,0l-4.23,4.23a0.75,0.75,0,0,0,0,1.06,0.74,0.74,0,0,0,1,0l2.94-2.94V22.53a0.75,0.75,0,0,0,1.51,0V11.28l2.94,2.94a0.75,0.75,0,0,0,1.07-1.06Z" transform="translate(-0.96 -0.96)"/></g></g></svg>