<?xml version="1.0" encoding="utf-8"?>
<!-- Generator: Adobe Illustrator 19.2.1, SVG Export Plug-In . SVG Version: 6.00 Build 0)  -->
<svg version="1.1" id="full_access_copy_1_" xmlns="http://www.w3.org/2000/svg" xmlns:xlink="http://www.w3.org/1999/xlink"
	 x="0px" y="0px" viewBox="0 0 32 32" style="enable-background:new 0 0 32 32;" xml:space="preserve">
<style type="text/css">
	.st0{fill:#7B7B7C;}
</style>
<g id="full_access_copy">
	<g>
		<path class="st0" d="M16,0.3C7.3,0.3,0.3,7.3,0.3,16s7,15.7,15.7,15.7s15.7-7,15.7-15.7S24.7,0.3,16,0.3z M16,29.2
			C8.7,29.2,2.8,23.3,2.8,16S8.7,2.8,16,2.8S29.2,8.7,29.2,16S23.3,29.2,16,29.2z M21,11l-7.3,7.3L11,15.6c-0.5-0.5-1.3-0.5-1.8,0
			s-0.5,1.3,0,1.8l3.6,3.6c0.2,0.2,0.6,0.4,0.9,0.4c0.3,0,0.6-0.1,0.9-0.4l8.2-8.2c0.5-0.5,0.5-1.3,0-1.8S21.5,10.5,21,11z"/>
	</g>
</g>
</svg>
