<?xml version="1.0" encoding="utf-8"?>
<!-- Generator: Adobe Illustrator 19.2.1, SVG Export Plug-In . SVG Version: 6.00 Build 0)  -->
<svg version="1.1" id="Layer_1" xmlns="http://www.w3.org/2000/svg" xmlns:xlink="http://www.w3.org/1999/xlink" x="0px" y="0px"
	 viewBox="0 0 34 34" style="enable-background:new 0 0 34 34;" xml:space="preserve">
<style type="text/css">
	.st0{fill:#7B7B7C;}
</style>
<g>
	<path class="st0" d="M23.6,10.4c-0.5-0.5-1.4-0.5-1.9,0L17,15.1l-4.7-4.7c-0.5-0.5-1.4-0.5-1.9,0c-0.5,0.5-0.5,1.4,0,1.9l4.7,4.7
		l-4.7,4.7c-0.5,0.5-0.5,1.4,0,1.9c0.3,0.3,0.6,0.4,0.9,0.4s0.7-0.1,0.9-0.4l4.7-4.7l4.7,4.7c0.3,0.3,0.6,0.4,0.9,0.4
		c0.3,0,0.7-0.1,0.9-0.4c0.5-0.5,0.5-1.4,0-1.9L19,17l4.7-4.7C24.1,11.8,24.1,10.9,23.6,10.4L23.6,10.4z"/>
	<path class="st0" d="M25.6,0.9H8.5C4.3,0.9,1,4.3,1,8.4v17.1C1,29.7,4.4,33,8.5,33h17.1c4.2,0,7.5-3.4,7.5-7.5V8.4
		C33.1,4.3,29.7,0.9,25.6,0.9z M30.4,25.2c0,2.9-2.3,5.2-5.2,5.2H8.8c-2.9,0-5.2-2.3-5.2-5.2V8.8c0-2.9,2.3-5.2,5.2-5.2h16.4
		c2.9,0,5.2,2.3,5.2,5.2V25.2z"/>
</g>
</svg>
