<?xml version="1.0" encoding="utf-8"?>
<!-- Generator: Adobe Illustrator 19.2.1, SVG Export Plug-In . SVG Version: 6.00 Build 0)  -->
<svg version="1.1" xmlns="http://www.w3.org/2000/svg" xmlns:xlink="http://www.w3.org/1999/xlink" x="0px" y="0px"
	 viewBox="0 0 9.7 9.7" style="enable-background:new 0 0 9.7 9.7;" xml:space="preserve">
<style type="text/css">
	.st0{fill-rule:evenodd;clip-rule:evenodd;fill:#A3AF4B;}
	.st1{fill:#FFFFFF;}
</style>
<g id="Layer_1">
	<g id="Ellipse_1_1_">
		<g>
			<circle class="st0" cx="4.8" cy="4.8" r="4.7"/>
		</g>
	</g>
</g>
<g id="Layer_2">
	<g>
		<path class="st1" d="M4.5,6.4L3.3,5.1c0,0-0.1,0-0.1,0c0,0-0.1,0.1-0.1,0.1v1.3c0,0,0,0.1,0,0.1c0,0,0.1,0,0.1,0h1.2
			c0,0,0.1,0,0.1-0.1C4.5,6.5,4.5,6.4,4.5,6.4L4.5,6.4z M3.3,6.4V5.5l0.8,0.9H3.3z"/>
		<path class="st1" d="M7.5,2.6c0-0.1-0.1-0.3-0.1-0.3C7.3,2.2,7.2,2.2,7,2.2H6.4c-0.3,0-0.5,0.2-0.5,0.5v3.9L5.4,6l0-2.5
			c0,0,0,0,0-0.1L5,2.8C4.9,2.7,4.8,2.6,4.7,2.6c-0.1,0-0.2,0.1-0.3,0.2L4.1,3.4c0,0,0,0,0,0.1v1.1L2.4,2.8c0,0-0.1,0-0.1,0
			c0,0-0.1,0.1-0.1,0.1v4.5c0,0,0,0.1,0,0.1c0,0,0.1,0,0.1,0H7c0.1,0,0.3-0.1,0.3-0.1C7.5,7.3,7.5,7.1,7.5,7L7.5,2.6z M4.9,5.4V3.8
			h0.3v1.9L4.9,5.4z M4.7,2.9C4.7,2.9,4.7,2.9,4.7,2.9c0.1,0,0.1,0,0.1,0l0.4,0.7v0l-0.9,0v0L4.7,2.9z M4.3,3.8h0.3v1.4L4.3,4.8V3.8
			z M2.4,3.2l3.9,4.1H2.4V3.2z M7.3,7c0,0.1,0,0.1-0.1,0.2c0,0-0.1,0.1-0.2,0.1H6.6L6.2,6.8h0.7V6.5H6.1v-1h0.5V5.3H6.1v-1h0.7V4.1
			H6.1v-1h0.5V2.9H6.1V2.6c0-0.1,0.1-0.2,0.2-0.2H7c0.1,0,0.1,0,0.2,0.1c0,0,0.1,0.1,0.1,0.2L7.3,7z"/>
	</g>
</g>
</svg>
