<?xml version="1.0" encoding="UTF-8"?>
<!-- Generator: Adobe Illustrator 19.2.1, SVG Export Plug-In . SVG Version: 6.00 Build 0)  -->
<svg version="1.1" id="Layer_1" xmlns="http://www.w3.org/2000/svg" xmlns:xlink="http://www.w3.org/1999/xlink" x="0px" y="0px" viewBox="0 0 32 32" style="enable-background:new 0 0 32 32;" xml:space="preserve">
<style type="text/css">
	.st0{fill:#00A3D9;}
	.st1{fill:#8CC63F;}
	.st2{fill:none;stroke:#8CC63F;stroke-width:1.4;stroke-miterlimit:10;}
</style>
<title>icon-user-group</title>
<g id="Shape_1_copy">
	<g id="Shape_1_copy-2">
		<path class="st0" d="M12,16.3c-0.4-0.3-0.9-0.5-1.4-0.7c0.5-0.3,0.9-0.8,1.2-1.3c0.2-0.3,0.2-0.8-0.1-1c0,0,0,0,0,0    c-0.3-0.2-0.7-0.2-0.9,0.2c0,0,0,0,0,0c-1,1.6-3,1.9-4.5,0.9s-1.8-3.2-0.8-4.8s3-1.9,4.5-0.9c0.2,0.1,0.3,0.3,0.4,0.4    c0.2,0.3,0.7,0.3,0.9,0.1c0,0,0,0,0.1-0.1c0.3-0.3,0.3-0.7,0-1c0,0,0,0,0,0c-0.8-0.9-2-1.4-3.2-1.4c-2.5,0-4.5,2.2-4.5,4.9    c0,1.6,0.7,3,1.9,3.9c-3.2,1.1-5.3,4.3-5.2,7.9c0,0.4,0.3,0.7,0.7,0.7c0,0,0,0,0,0h5.2c0.4,0,0.7-0.3,0.7-0.7    c0-0.4-0.3-0.7-0.7-0.7H1.7c0.3-3.5,3-6.1,6.3-6.1c1.2,0,2.3,0.4,3.3,1c0.3,0.2,0.7,0.1,0.9-0.3c0,0,0,0,0,0    C12.4,17,12.3,16.6,12,16.3z"/>
	</g>
</g>
<g id="Shape_1_copy_2">
	<g id="Shape_1_copy_2-2">
		<path class="st0" d="M26.5,15.6c2.1-1.6,2.5-4.6,1.1-6.8c-0.8-1.3-2.2-2-3.7-2c-1.2,0-2.4,0.5-3.2,1.4c-0.3,0.3-0.3,0.7,0,1    c0,0,0,0,0,0c0.2,0.3,0.7,0.3,0.9,0.1c0,0,0,0,0.1-0.1c0.6-0.6,1.4-1,2.2-1c1.8,0,3.2,1.5,3.2,3.4s-1.4,3.4-3.2,3.5    c-1.1,0-2.1-0.5-2.7-1.5c-0.2-0.3-0.6-0.4-0.9-0.2c0,0,0,0,0,0c-0.3,0.2-0.4,0.7-0.2,1c0,0,0,0,0,0c0.3,0.5,0.7,0.9,1.2,1.3    c-0.5,0.2-0.9,0.4-1.4,0.7c-0.3,0.2-0.4,0.6-0.2,1c0.2,0.3,0.6,0.5,0.9,0.3c0,0,0,0,0,0c1-0.7,2.1-1,3.2-1.1    c3.3-0.1,6,2.6,6.3,6.1h-4.5c-0.4,0-0.7,0.3-0.7,0.7c0,0.4,0.3,0.7,0.7,0.7H31c0.4,0,0.7-0.3,0.7-0.7l0,0    C31.8,19.9,29.7,16.7,26.5,15.6z"/>
	</g>
</g>
<g id="Shape_1">
	<g id="Shape_1-2">
		<path class="st1" d="M19,16c2.9-1.8,3.9-5.7,2.2-8.8c-1.7-3.1-5.3-4.1-8.2-2.3s-3.9,5.7-2.2,8.8c0.5,1,1.3,1.8,2.2,2.3    c-4.4,1.4-7.4,5.8-7.4,10.7c0,0.5,0.3,0.9,0.7,0.9c0.4,0.1,0.8-0.3,0.9-0.7c0-0.1,0-0.1,0-0.2c0-5.2,4-9.5,8.9-9.5    s8.9,4.2,8.9,9.5c0,0.5,0.3,0.9,0.7,0.9c0.4,0.1,0.8-0.3,0.9-0.7c0-0.1,0-0.1,0-0.2C26.4,21.8,23.4,17.5,19,16z M11.5,10.4    c0-2.7,2.1-4.8,4.5-4.8s4.5,2.2,4.5,4.8c0,2.7-2.1,4.8-4.5,4.8C13.5,15.2,11.5,13.1,11.5,10.4z"/>
	</g>
</g>
<line class="st2" x1="5.8" y1="26.9" x2="25.6" y2="26.9"/>
</svg>