<?xml version="1.0" encoding="UTF-8"?>
<!-- Generator: Adobe Illustrator 19.2.1, SVG Export Plug-In . SVG Version: 6.00 Build 0)  -->
<svg version="1.1" id="Layer_1" xmlns="http://www.w3.org/2000/svg" xmlns:xlink="http://www.w3.org/1999/xlink" x="0px" y="0px" viewBox="0 0 32 32" style="enable-background:new 0 0 32 32;" xml:space="preserve">
<style type="text/css">
	.st0{enable-background:new    ;}
	.st1{fill:#63BC48;}
	.st2{fill:#00A3D7;}
	.st3{fill:#0088A8;}
</style>
<g id="shape_copy_1_" class="st0">
</g>
<g id="_x37__1_" class="st0">
</g>
<g id="_x36__1_" class="st0">
</g>
<g id="_x35__1_" class="st0">
</g>
<g id="_x34__1_" class="st0">
</g>
<g id="_x33__1_" class="st0">
</g>
<g id="_x32__1_" class="st0">
</g>
<g id="_x31__1_" class="st0">
</g>
<g id="Forma_1_1_" class="st0">
	<g>
		<g id="shape_copy">
			<g>
				<path class="st1" d="M21.5,4.4c6.4,2.1,9.9,9,7.8,15.3c0,0.1-0.1,0.2-0.1,0.3l1.9,0.6c0-0.1,0.1-0.2,0.1-0.3      c2.4-7.5-1.7-15.4-9.2-17.8C14.6,0.1,6.6,4.2,4.1,11.6c0,0.1-0.7,2-0.8,4.3l-1.5-1.6c-0.3-0.4-1-0.4-1.4-0.1s-0.4,1-0.1,1.4      l3.5,3.9l0,0l0.1,0.1c0,0,0.1,0,0.1,0.1c0,0,0.1,0,0.1,0.1h0.1l0,0l0,0c0,0,0,0,0.1,0h0.1h0.1h0.1h0.1c0,0,0.1,0,0.1-0.1      c0,0,0.1,0,0.1-0.1c0,0,0,0,0.1,0l0,0c0,0,0,0,0.1-0.1l3.1-3.7c0.3-0.4,0.3-1.1-0.1-1.4c-0.4-0.3-1.1-0.3-1.4,0.1l-1.6,1.9      c0-2.1,0.7-4.1,0.7-4.1C8.2,5.9,15,2.3,21.5,4.4z"/>
			</g>
		</g>
		<g id="_x37_">
			<g>
				<ellipse transform="matrix(0.3067 -0.9518 0.9518 0.3067 1.1328 42.9639)" class="st1" cx="30.1" cy="20.7" rx="1.1" ry="1.1"/>
			</g>
		</g>
		<g id="_x36_">
			<g>
				
					<ellipse transform="matrix(0.3067 -0.9518 0.9518 0.3067 -2.6349 43.3751)" class="st2" cx="28.5" cy="23.5" rx="1.1" ry="1.1"/>
			</g>
		</g>
		<g id="_x35_">
			<g>
				
					<ellipse transform="matrix(0.3067 -0.9518 0.9518 0.3067 -6.6272 43.0946)" class="st2" cx="26.3" cy="26.1" rx="1.1" ry="1.1"/>
			</g>
		</g>
		<g id="_x34_">
			<g>
				
					<ellipse transform="matrix(0.3067 -0.9518 0.9518 0.3067 -10.2722 41.5737)" class="st2" cx="23.4" cy="27.8" rx="1.1" ry="1.1"/>
			</g>
		</g>
		<g id="_x33_">
			<g>
				
					<ellipse transform="matrix(0.3067 -0.9518 0.9518 0.3067 -13.4692 39.4002)" class="st2" cx="20.3" cy="28.9" rx="1.1" ry="1.1"/>
			</g>
		</g>
		<g id="_x32_">
			<g>
				<ellipse transform="matrix(0.3067 -0.9518 0.9518 0.3067 -15.8736 36.3294)" class="st2" cx="17" cy="29.1" rx="1.1" ry="1.1"/>
			</g>
		</g>
		<g id="_x31_">
			<g>
				
					<ellipse transform="matrix(0.3067 -0.9518 0.9518 0.3067 -17.5683 33.1165)" class="st2" cx="13.9" cy="28.6" rx="1.1" ry="1.1"/>
			</g>
		</g>
		<g id="Forma_1">
			<g>
				<path class="st3" d="M24.5,9.9c-0.2-0.2-0.7-0.2-1,0l-4.9,5c-0.9-0.5-2-0.5-2.8,0l-3.5-3.4c-0.2-0.2-0.7-0.2-1,0s-0.2,0.7,0,1      l3.5,3.4c-0.6,1.1-0.5,2.4,0.5,3.3c1.1,1.1,2.8,1,3.9-0.1c0.9-1,1-2.3,0.4-3.3l4.9-5C24.7,10.6,24.7,10.1,24.5,9.9z M18.2,18.3      c-0.5,0.5-1.3,0.6-2,0c-0.6-0.6-0.6-1.3,0-2c0.5-0.5,1.3-0.6,2,0C18.7,16.8,18.7,17.8,18.2,18.3z"/>
			</g>
		</g>
	</g>
</g>
</svg>