<?xml version="1.0" encoding="utf-8"?>
<!-- Generator: Adobe Illustrator 19.2.1, SVG Export Plug-In . SVG Version: 6.00 Build 0)  -->
<svg version="1.1" id="_" xmlns="http://www.w3.org/2000/svg" xmlns:xlink="http://www.w3.org/1999/xlink" x="0px" y="0px"
	 viewBox="0 0 32 32" style="enable-background:new 0 0 32 32;" xml:space="preserve">
<style type="text/css">
	.st0{fill:#FFFFFF;}
	.st1{fill:#E8D47E;}
</style>
<title>icon-in-progress</title>
<g>
	<g id="Ellipse_1">
		<g id="Ellipse_1-2">
			<path class="st0" d="M16.2,30.3c-8,0.2-14.5-6.1-14.5-14.1C1.5,8.3,7.8,1.7,15.7,1.7c8-0.2,14.5,6.1,14.5,14.1
				S24.1,30.1,16.2,30.3L16.2,30.3z"/>
			<path class="st1" d="M15.7,2.3c7.5-0.2,13.9,5.9,13.9,13.5s-5.9,13.9-13.5,13.9S2.3,23.7,2.3,16.2l0,0C2.1,8.7,8.2,2.3,15.7,2.3
				 M15.7,0.3C7,0.3,0,7.6,0.3,16.2s7.3,15.7,16.1,15.5s15.7-7.3,15.5-16.1C31.6,7,24.3,0.1,15.7,0.3L15.7,0.3L15.7,0.3L15.7,0.3z"
				/>
		</g>
	</g>
</g>
<g id="Forma_1">
	<path class="st1" d="M15.9,4.6c-1.6,0-2.9,1.2-2.9,2.7l0,0v9c0.2,1.6,1.4,2.7,3.1,2.4c1.4-0.2,2.4-1.2,2.4-2.4v-9
		C18.6,5.8,17.4,4.6,15.9,4.6z M15.9,21.5c-1.4,0-2.7,1.2-2.7,2.9c0,1.4,1.2,2.7,2.9,2.7c1.4,0,2.7-1.2,2.7-2.7
		C18.6,22.7,17.4,21.5,15.9,21.5L15.9,21.5z"/>
</g>
</svg>
