<?xml version="1.0" encoding="utf-8"?>
<!-- Generator: Adobe Illustrator 19.2.1, SVG Export Plug-In . SVG Version: 6.00 Build 0)  -->
<svg version="1.1" id="Layer_1" xmlns="http://www.w3.org/2000/svg" xmlns:xlink="http://www.w3.org/1999/xlink" x="0px" y="0px"
	 viewBox="0 0 34 34" style="enable-background:new 0 0 34 34;" xml:space="preserve">
<style type="text/css">
	.st0{fill:#7B7B7C;}
</style>
<g>
	<path class="st0" d="M30.6,4.7L15.9,19.5l-5.2-5.6c-0.6-0.6-1.6-0.7-2.2-0.1c-0.6,0.6-0.7,1.6-0.1,2.2l6.3,6.8
		c0.3,0.3,0.7,0.5,1.1,0.5h0.1c0.4,0,0.8-0.2,1.1-0.5L32.8,6.9c0.6-0.6,0.6-1.6,0-2.2C32.3,4.1,31.3,4.1,30.6,4.7L30.6,4.7z"/>
	<path class="st0" d="M7.4,33.2h18.8c3.8,0,6.8-3,6.8-6.8V16c0-0.9-0.7-1.6-1.6-1.6s-1.6,0.7-1.6,1.6v10.4c0,2-1.6,3.7-3.7,3.7H7.4
		c-2,0-3.7-1.6-3.7-3.7V7.6c0-2,1.6-3.7,3.7-3.7h16.8c0.9,0,1.6-0.7,1.6-1.6s-0.7-1.6-1.6-1.6H7.4c-3.8,0-6.8,3-6.8,6.8v18.8
		C0.7,30.1,3.7,33.2,7.4,33.2z"/>
</g>
</svg>
