<?xml version="1.0" encoding="utf-8"?>
<!-- Generator: Adobe Illustrator 19.2.1, SVG Export Plug-In . SVG Version: 6.00 Build 0)  -->
<svg version="1.1" id="Layer_1" xmlns="http://www.w3.org/2000/svg" xmlns:xlink="http://www.w3.org/1999/xlink" x="0px" y="0px"
	 viewBox="0 0 34 34" style="enable-background:new 0 0 34 34;" xml:space="preserve">
<style type="text/css">
	.st0{opacity:0.502;}
	.st1{fill-rule:evenodd;clip-rule:evenodd;}
</style>
<g id="Shape_3" class="st0">
	<g>
		<path class="st1" d="M28.5,5.5C25.5,2.4,21.3,0.7,17,0.7c-4.3,0-8.5,1.7-11.5,4.8C2.4,8.5,0.7,12.7,0.7,17c0,4.3,1.7,8.5,4.8,11.5
			c3.1,3.1,7.2,4.8,11.5,4.8c4.3,0,8.5-1.7,11.6-4.8c3.1-3.1,4.8-7.2,4.8-11.5C33.3,12.7,31.6,8.5,28.5,5.5z M4.8,17L4.8,17
			c0-4.6,2.6-8.8,6.6-10.9c4.1-2.1,9-1.8,12.7,0.9L7,24.1C5.5,22,4.8,19.5,4.8,17z M27.9,22.6c-2.1,4.1-6.3,6.6-10.9,6.6l0,0
			c-2.5,0-5-0.8-7.1-2.3L27,9.9C29.6,13.6,30,18.6,27.9,22.6z"/>
	</g>
</g>
</svg>
