<?xml version="1.0" encoding="utf-8"?>
<!-- Generator: Adobe Illustrator 19.2.1, SVG Export Plug-In . SVG Version: 6.00 Build 0)  -->
<svg version="1.1" id="Layer_1" xmlns="http://www.w3.org/2000/svg" xmlns:xlink="http://www.w3.org/1999/xlink" x="0px" y="0px"
	 viewBox="0 0 9.7 9.7" style="enable-background:new 0 0 9.7 9.7;" xml:space="preserve">
<style type="text/css">
	.st0{fill-rule:evenodd;clip-rule:evenodd;fill:#69ABDF;}
	.st1{fill:#FFFFFF;}
</style>
<g id="Ellipse_1_1_">
	<g>
		<circle class="st0" cx="4.8" cy="4.8" r="4.7"/>
	</g>
</g>
<path class="st1" d="M2.9,2.2L2.3,3.3l0.6,1v2.4c0,0.4,0.3,0.7,0.7,0.7c0.4,0,0.7-0.3,0.7-0.7v0c0,0,0.1,0,0.1,0v0.7h1.1V6.7
	c0.1,0,0.3-0.1,0.4-0.2l0.5,0.5L7,6.3L6.6,5.8c0.1-0.1,0.1-0.3,0.2-0.4h0.7V4.3H6.7c0-0.1-0.1-0.3-0.2-0.4L7,3.4L6.3,2.6L5.8,3.1
	C5.6,3,5.5,3,5.4,2.9V2.3H4.3v0.2L4.1,2.3H3.8V3L3.5,3.3L3.2,3V2.3L2.9,2.2z M4.6,2.6h0.5v0.6l0.1,0c0.2,0,0.4,0.1,0.5,0.2l0.1,0.1
	L6.3,3l0.4,0.4L6.2,3.8l0.1,0.1c0.1,0.2,0.2,0.3,0.2,0.5l0,0.1h0.6v0.5H6.5l0,0.1c0,0.2-0.1,0.4-0.2,0.5L6.2,5.8l0.4,0.4L6.3,6.6
	L5.8,6.2L5.7,6.2C5.6,6.3,5.4,6.4,5.2,6.5l-0.1,0v0.6H4.6V6.5l-0.1,0c-0.1,0-0.2,0-0.3-0.1V5.8C4.4,6,4.6,6,4.8,6
	c0.3,0,0.6-0.1,0.8-0.3c0.5-0.5,0.5-1.2,0-1.7C5.4,3.7,5,3.6,4.6,3.7l0.2-0.3L4.6,3L4.6,2.6z M2.9,2.8v0.4l0.6,0.5l0.6-0.5V2.8
	l0.3,0.6L4.1,3.9c0,0,0,0,0,0l0,0L4,4.1H3.1L2.6,3.3L2.9,2.8z M4.8,3.9c0.2,0,0.5,0.1,0.6,0.3c0.3,0.3,0.3,0.9,0,1.3
	c-0.3,0.3-0.9,0.3-1.3,0l0,0V4.3l0.1-0.2C4.5,4,4.7,3.9,4.8,3.9L4.8,3.9z M3.1,4.4h0.8v2.3c0,0.2-0.2,0.4-0.4,0.4
	c-0.2,0-0.4-0.2-0.4-0.4L3.1,4.4z M3.4,4.8v1.8h0.3V4.8H3.4z"/>
</svg>
