<?xml version="1.0" encoding="utf-8"?>
<!-- Generator: Adobe Illustrator 19.2.1, SVG Export Plug-In . SVG Version: 6.00 Build 0)  -->
<svg version="1.1" xmlns="http://www.w3.org/2000/svg" xmlns:xlink="http://www.w3.org/1999/xlink" x="0px" y="0px"
	 viewBox="0 0 9.7 9.7" style="enable-background:new 0 0 9.7 9.7;" xml:space="preserve">
<style type="text/css">
	.st0{fill-rule:evenodd;clip-rule:evenodd;fill:#4D405D;}
	.st1{display:none;}
	.st2{display:inline;}
	.st3{fill:#FFFFFF;}
</style>
<g id="Layer_1">
	<g id="Ellipse_1_1_">
		<g>
			<circle class="st0" cx="4.8" cy="4.8" r="4.7"/>
		</g>
	</g>
</g>
<g id="Layer_2">
</g>
<g id="Layer_3" class="st1">
	<g class="st2">
		<path class="st3" d="M6.3,2.3H5.5C5.3,2.1,5.1,1.9,4.8,1.9S4.3,2.1,4.2,2.3H3.3c-0.5,0-0.9,0.4-0.9,0.9v3.6c0,0.5,0.4,0.9,0.9,0.9
			h3c0.5,0,0.9-0.4,0.9-0.9V3.2C7.2,3,7.1,2.7,7,2.6C6.8,2.4,6.6,2.3,6.3,2.3L6.3,2.3z M4.4,2.8L4.4,2.8c0.1,0,0.2-0.1,0.2-0.2
			c0-0.1,0.1-0.2,0.2-0.2c0.1,0,0.2,0.1,0.2,0.2c0,0.1,0.1,0.2,0.2,0.2h0.2V3H4.2V2.8H4.4z M6.7,6.8c0,0.2-0.2,0.4-0.4,0.4h-3
			C3.1,7.2,3,7.1,3,6.8V3.2C3,3,3.1,2.8,3.3,2.8h0.4v0.3c0,0.2,0.2,0.4,0.4,0.4h1.4C5.8,3.6,6,3.4,6,3.1V2.8h0.4
			c0.2,0,0.4,0.2,0.4,0.4L6.7,6.8z"/>
		<path class="st3" d="M5.4,4.5L4.6,5.3L4.2,5C4.1,4.9,4,4.9,3.9,5c-0.1,0.1-0.1,0.3,0,0.4l0.5,0.5c0,0,0.1,0.1,0.2,0.1
			s0.1,0,0.2-0.1l1-1c0.1-0.1,0.1-0.3,0-0.4C5.7,4.4,5.5,4.4,5.4,4.5L5.4,4.5z"/>
	</g>
</g>
<g id="Layer_4">
	<g>
		<path class="st3" d="M7.4,2.3L7.4,2.3L7.4,2.3C6.5,2,5.7,2.5,5.3,2.8L4.4,3.7L3.5,3.4L2.7,4.2l0.7,0.7L3,5.5l1.1,1.1l0.7-0.4
			l0.7,0.7l0.7-0.7L5.9,5.3l0.9-0.9C7.2,4,7.7,3.2,7.4,2.3L7.4,2.3z M3.4,5.5L3.6,5l1,1L4.2,6.3L3.4,5.5z M6.7,4.1L5.6,5.2l0.3,0.9
			L5.5,6.6L4.8,5.9L3.8,4.8L3.7,4.8L3.1,4.2l0.4-0.4L4.5,4L5.5,3c0.3-0.3,0.9-0.7,1.7-0.5C7.4,3.2,7,3.9,6.7,4.1L6.7,4.1z"/>
		<path class="st3" d="M2.3,7.2l0.9-0.9l0.2,0.2L2.4,7.4L2.3,7.2z"/>
		<path class="st3" d="M3.1,7.3l0.6-0.6l0.2,0.2L3.3,7.5L3.1,7.3z"/>
		<path class="st3" d="M2.2,6.4l0.6-0.6L2.9,6L2.3,6.6L2.2,6.4z"/>
		<path class="st3" d="M6.1,3.1c-0.2,0-0.4,0.1-0.4,0.3c0,0.2,0.1,0.4,0.3,0.5c0.2,0.1,0.4,0,0.5-0.2c0.1-0.2,0.1-0.4,0-0.5
			C6.4,3.2,6.2,3.1,6.1,3.1L6.1,3.1z M6.3,3.7C6.2,3.7,6.1,3.7,6,3.7c0,0-0.1-0.1,0-0.2c0-0.1,0.1-0.1,0.2-0.1s0.1,0,0.2,0.1
			C6.3,3.5,6.3,3.6,6.3,3.7L6.3,3.7z"/>
	</g>
</g>
</svg>
