<?xml version="1.0" encoding="utf-8"?>
<!-- Generator: Adobe Illustrator 19.2.1, SVG Export Plug-In . SVG Version: 6.00 Build 0)  -->
<svg version="1.1" id="Layer_1" xmlns="http://www.w3.org/2000/svg" xmlns:xlink="http://www.w3.org/1999/xlink" x="0px" y="0px"
	 viewBox="0 0 34 34" style="enable-background:new 0 0 34 34;" xml:space="preserve">
<style type="text/css">
	.st0{fill:#7B7B7C;}
</style>
<g>
	<path class="st0" d="M5.3,34h20.5c3.2,0,5.3-1.3,5.3-5.3v-6.6c0-0.7-0.9-1.6-1.6-1.6s-1.8,0.9-1.8,1.6v6.6c0,0.8-0.1,1.2-0.6,1.7
		C26.4,31,25.5,31,24.7,31H5.9C4.3,31,3,29.7,3,28.1V8.7c0-1.6,1.3-2.9,2.9-2.9h6c0.7,0,1.2-1,1.2-1.7S12.5,3,11.9,3H5.3
		C2.3,3,0,5.3,0,8.3v20.5C0,31.7,2.3,34,5.3,34z"/>
	<path class="st0" d="M32.8,1.2c-1.7-1.7-4.4-1.7-6.1,0L11.4,16.5c-0.2,0.1-0.3,0.3-0.3,0.5l-1.3,4.6c-0.2,0.6,0,1.3,0.3,1.8
		c0.4,0.5,1,0.8,1.6,0.8l0.5-0.1l4.6-1.3v0c0.2-0.1,0.4-0.2,0.5-0.3L32.8,7.3C34.4,5.6,34.4,2.9,32.8,1.2L32.8,1.2z M16,20.6l-3.6,1
		l1-3.6L26.3,5l2.6,2.6L16,20.6z M31,5.6l-0.3,0.3l-2.6-2.6L28.4,3c0.7-0.7,1.9-0.7,2.6,0C31.7,3.7,31.7,4.9,31,5.6z"/>
</g>
</svg>
