<?xml version="1.0" encoding="utf-8"?>
<!-- Generator: Adobe Illustrator 21.0.0, SVG Export Plug-In . SVG Version: 6.00 Build 0)  -->
<svg
	version="1.1"
	id="Layer_1"
	xmlns="http://www.w3.org/2000/svg"
	xmlns:xlink="http://www.w3.org/1999/xlink"
	x="0px"
	y="0px"
	viewBox="0 0 276.2 36.8"
	style="enable-background:new 0 0 276.2 36.8;"
	xml:space="preserve"
	fill="white">
<style type="text/css">
	.st0{enable-background:new    ;}
	.st1{fill:#FFFFFF;}
</style>
<g id="Layer_1_xA0_Image_1_">
</g>
<g id="Rectangle_1_1_" class="st0">
	<g id="Rectangle_1">
		<g>
			<rect x="109" y="6.8" class="st1" width="0.8" height="21.5"/>
		</g>
	</g>
</g>
<g class="st0">
	<path class="st1" d="M18.7,7.8v19H16v-19C16,7.8,18.7,7.8,18.7,7.8z M24.3,26.8l-5.5-6.7l5.2-5.7h3.4L22.1,20l5.6,6.8H24.3z"/>
	<path class="st1" d="M28.5,20.6c0-1.9,0.6-3.5,1.8-4.7c1.2-1.2,2.7-1.8,4.6-1.8c1.9,0,3.4,0.6,4.6,1.8s1.8,2.8,1.8,4.7
		c0,1.9-0.6,3.5-1.8,4.7s-2.7,1.8-4.6,1.8c-1.9,0-3.4-0.6-4.6-1.8C29.1,24.1,28.5,22.5,28.5,20.6z M38.5,20.6c0-1.2-0.3-2.2-1-3
		c-0.7-0.7-1.5-1.1-2.6-1.1s-1.9,0.4-2.6,1.1s-1,1.7-1,3c0,1.2,0.3,2.2,1,3c0.7,0.7,1.5,1.1,2.6,1.1s1.9-0.4,2.6-1.1
		C38.1,22.8,38.5,21.8,38.5,20.6z"/>
	<path class="st1" d="M44.1,26.8V15.2c1.8-0.7,3.7-1.1,5.7-1.1c1.7,0,2.9,0.4,3.8,1.1s1.3,1.9,1.3,3.6v8h-2.7v-7.7
		c0-1.6-0.9-2.4-2.7-2.4c-1,0-1.9,0.1-2.7,0.4v9.8h-2.7V26.8z"/>
	<path class="st1" d="M59.7,14.4l3.5,9.8l3.5-9.8h2.9l-6.7,17.4h-2.7l1.7-4.5l-5.1-13L59.7,14.4L59.7,14.4z"/>
</g>
<g>
	<g>
		<g>
			<path class="st1" d="M85.6,12.9L85.3,13c-0.8,0.2-1.8,0.2-2.7-0.6c-0.6-0.7-1.1-1.4-1.5-2.2c-0.3-0.6-0.5-1.4-0.6-2
				c-0.7-2.7,0.5-4.3,1.7-4.4c0.9-0.1,2,0.4,2.1,2.9c0,2.4-0.3,4.7,1,5.9C85.5,12.7,85.6,12.9,85.6,12.9"/>
		</g>
	</g>
	<g>
		<g>
			<path class="st1" d="M86.9,14.5c4.2-0.4,7.6-4.3,8.5-5.7c1.2-2.6,0.8-4.3-0.7-4.6c-1.4-0.4-2.8,0.5-3.9,2.9
				c-1,2.4-2.1,5.2-4.7,6.3c0,0-1.1,0.6-2.7,0.3C83.6,13.5,84.4,14.8,86.9,14.5"/>
		</g>
	</g>
	<g>
		<g>
			<path class="st1" d="M81.5,17.4L81.5,17.4l0.1-0.2c0.3-1.8-0.4-3.5-1.8-4.5c-0.4-0.5-0.9-0.7-1.1-1c-0.6-0.2-1.1-0.3-1.8-0.3
				c-2.1-0.2-3.5,0.8-3.4,2.1c0.1,0.9,0.5,2.1,2.8,2.1C78.6,15.9,80.2,16.1,81.5,17.4"/>
		</g>
	</g>
	<g>
		<g>
			<path class="st1" d="M81.8,14.1c0,0,0.9,1.9,0.4,3.9c-0.6,2.1-2.8,3.5-4.7,4.5s-2.4,2.7-2.1,3.4c0.6,1.1,2.1,1.6,3.9,0.9
				c1.3-0.6,4.8-3,4.4-7.6C83.4,15.3,81.8,14.1,81.8,14.1"/>
		</g>
	</g>
	<g>
		<g>
			<path class="st1" d="M85.4,21.7c1.3-2.4,2.9-3.2,2.9-3.2c3.9-1.9,9.8,2,10.5,2.4c0.9,0.5,3.4,1.3,4.4-0.9
				c0.9-1.8-0.3-2.9-1.8-3.9c-2.4-1.5-10.2-4.2-14.6,2C86.6,18.3,85.9,19.6,85.4,21.7"/>
		</g>
	</g>
	<g>
		<g>
			<path class="st1" d="M92.7,28.1c-0.6-0.9-4.8-4.2-4.7-8.3v-0.4l-0.3,0.1c-1.3,0.9-2.4,2.1-2.4,3.5c-0.1,0.6-0.1,1.4,0.1,2.1
				c0.5,2.1,1.5,4.2,2.9,5.7c1.9,1.9,3.5,2.1,4.4,1.1C93.8,30.8,93.6,29.4,92.7,28.1"/>
		</g>
	</g>
</g>
<g class="st0">
	<path class="st1" d="M126,18.8h-5.5l-1.2,3.1h-1.2l4.4-11.5h1.5l4.5,11.5h-1.3L126,18.8z M125.6,17.9l-2.4-6.3l-2.4,6.3H125.6z"/>
	<path class="st1" d="M130.1,25.5V14c1-0.3,1.9-0.6,2.9-0.6c1.4,0,2.6,0.4,3.4,1.1c0.8,0.7,1.2,1.8,1.2,3.3c0,1.4-0.4,2.4-1.2,3.2
		c-0.8,0.8-1.9,1.2-3.3,1.2c-0.7,0-1.4-0.1-1.8-0.3v3.6H130.1z M131.3,14.7v6.2c0.6,0.2,1.1,0.3,1.8,0.3c1,0,1.8-0.3,2.5-0.9
		c0.6-0.6,1-1.4,1-2.5c0-1-0.3-1.8-0.9-2.4c-0.6-0.6-1.4-0.9-2.6-0.9C132.4,14.5,131.7,14.6,131.3,14.7z"/>
	<path class="st1" d="M140,25.5V14c1-0.3,1.9-0.6,2.9-0.6c1.4,0,2.6,0.4,3.4,1.1c0.8,0.7,1.2,1.8,1.2,3.3c0,1.4-0.4,2.4-1.2,3.2
		c-0.8,0.8-1.9,1.2-3.3,1.2c-0.7,0-1.4-0.1-1.8-0.3v3.6H140z M141.1,14.7v6.2c0.6,0.2,1.1,0.3,1.8,0.3c1,0,1.8-0.3,2.5-0.9
		c0.6-0.6,1-1.4,1-2.5c0-1-0.3-1.8-0.9-2.4c-0.6-0.6-1.4-0.9-2.6-0.9C142.2,14.5,141.6,14.6,141.1,14.7z"/>
	<path class="st1" d="M154.8,22h-1.2V10.6h5.9v1h-4.7v4.2h4.3v1h-4.3V22z"/>
	<path class="st1" d="M165.8,17.2v-1c0-0.6-0.2-1-0.5-1.2c-0.3-0.3-0.7-0.4-1.3-0.4c-0.8,0-1.6,0.2-2.5,0.6V14
		c0.8-0.4,1.7-0.6,2.6-0.6c1.8,0,2.8,0.9,2.8,2.6v5.8c-0.7,0.2-1.5,0.3-2.4,0.3c-2.6,0-3.8-0.8-3.8-2.5c0-0.8,0.3-1.4,1-1.8
		c0.7-0.4,1.7-0.6,3-0.6C164.8,17.2,165.8,17.2,165.8,17.2z M165.8,21.1v-3h-0.9c-0.9,0-1.6,0.2-2.2,0.4c-0.6,0.2-0.8,0.6-0.8,1.2
		c0,1,0.9,1.5,2.7,1.5C165,21.2,165.4,21.2,165.8,21.1z"/>
	<path class="st1" d="M175.8,14v1.2c-0.7-0.6-1.5-0.8-2.3-0.8c-0.9,0-1.7,0.3-2.3,0.9c-0.6,0.6-1,1.4-1,2.5s0.3,1.8,1,2.4
		s1.4,0.9,2.4,0.9c0.8,0,1.6-0.2,2.4-0.8v1.2c-0.8,0.4-1.7,0.6-2.5,0.6c-1.2,0-2.2-0.4-3.1-1.2c-0.9-0.8-1.3-1.8-1.3-3.2
		s0.4-2.4,1.3-3.2s1.8-1.2,3-1.2C174.3,13.4,175.1,13.6,175.8,14z"/>
	<path class="st1" d="M177.1,14.6v-1h1.3v-2h1.1v2h2.4v1h-2.4v5.1c0,1,0.4,1.5,1.2,1.5c0.4,0,1-0.2,1.5-0.5v1
		c-0.6,0.3-1.2,0.4-1.8,0.4c-1.4,0-2.1-0.8-2.1-2.4v-5.2H177.1z"/>
	<path class="st1" d="M184.7,21c-0.8-0.8-1.2-1.8-1.2-3.1s0.4-2.3,1.2-3.1c0.8-0.8,1.8-1.2,3-1.2s2.2,0.4,3,1.2
		c0.8,0.8,1.2,1.8,1.2,3.1s-0.4,2.3-1.2,3.1c-0.8,0.8-1.8,1.2-3,1.2S185.5,21.8,184.7,21z M189.9,20.3c0.6-0.6,0.9-1.4,0.9-2.5
		c0-1-0.3-1.8-0.9-2.5c-0.6-0.6-1.3-1-2.2-1s-1.6,0.3-2.2,1c-0.6,0.6-0.9,1.4-0.9,2.5s0.3,1.8,0.9,2.5c0.6,0.6,1.3,1,2.2,1
		S189.3,20.9,189.9,20.3z"/>
	<path class="st1" d="M195.4,15v7h-1.1v-7.6c1-0.6,2-0.9,3.1-0.9c0.5,0,0.9,0.1,1.4,0.2v1.1c-0.4-0.2-0.9-0.2-1.4-0.2
		C196.5,14.6,195.8,14.8,195.4,15z"/>
	<path class="st1" d="M200.9,13.6l2.8,7.6l2.8-7.6h1.2l-4.7,11.9h-1.1l1.1-2.9l-3.5-9H200.9z"/>
	<path class="st1" d="M221.4,11.2v1.4c-0.8-0.8-1.8-1.2-3.2-1.2c-1.3,0-2.4,0.5-3.4,1.4c-0.9,0.9-1.4,2.1-1.4,3.5s0.5,2.6,1.4,3.5
		c0.9,0.9,2,1.4,3.4,1.4s2.4-0.4,3.2-1.1v1.4c-1,0.6-2,0.9-3.2,0.9c-1.8,0-3.1-0.6-4.3-1.7c-1.1-1.1-1.7-2.5-1.7-4.3
		s0.6-3.1,1.7-4.3s2.6-1.7,4.2-1.7C219.4,10.3,220.4,10.7,221.4,11.2z"/>
	<path class="st1" d="M224.3,21c-0.8-0.8-1.2-1.8-1.2-3.1s0.4-2.3,1.2-3.1c0.8-0.8,1.8-1.2,3-1.2c1.3,0,2.2,0.4,3,1.2
		c0.8,0.8,1.2,1.8,1.2,3.1s-0.4,2.3-1.2,3.1c-0.8,0.8-1.8,1.2-3,1.2C226.1,22.2,225.1,21.8,224.3,21z M229.5,20.3
		c0.6-0.6,0.9-1.4,0.9-2.5c0-1-0.3-1.8-0.9-2.5c-0.6-0.6-1.3-1-2.2-1s-1.6,0.3-2.2,1c-0.6,0.6-0.9,1.4-0.9,2.5s0.3,1.8,0.9,2.5
		c0.6,0.6,1.3,1,2.2,1S229,20.9,229.5,20.3z"/>
	<path class="st1" d="M233.9,22V14c1.2-0.4,2.3-0.6,3.5-0.6c2.2,0,3.4,1,3.4,2.9V22h-1.1v-5.5c0-1.4-0.8-2.1-2.3-2.1
		c-0.7,0-1.4,0.1-2.2,0.3V22H233.9z"/>
	<path class="st1" d="M243.1,21.5v-1.3c0.7,0.6,1.5,1,2.4,1c1.1,0,1.8-0.5,1.8-1.4c0-0.5-0.2-0.8-0.5-1c-0.3-0.2-0.8-0.5-1.6-0.7
		c-0.7-0.2-1.3-0.6-1.6-1c-0.3-0.4-0.5-0.9-0.5-1.5c0-0.7,0.2-1.3,0.7-1.7s1.1-0.6,1.9-0.6c1,0,1.7,0.2,2.3,0.6v1.3
		c-0.7-0.6-1.5-0.9-2.3-0.9c-0.5,0-0.8,0.1-1.1,0.3c-0.2,0.2-0.4,0.6-0.4,1c0,0.4,0.2,0.7,0.4,1c0.2,0.2,0.7,0.5,1.4,0.6
		c0.8,0.2,1.4,0.6,1.8,0.9s0.6,0.9,0.6,1.6c0,0.8-0.2,1.4-0.8,1.8c-0.6,0.4-1.2,0.6-2.1,0.6C244.5,22.2,243.7,22,243.1,21.5z"/>
	<path class="st1" d="M251,21c-0.8-0.8-1.2-1.8-1.2-3.1s0.4-2.3,1.2-3.1c0.8-0.8,1.8-1.2,3-1.2s2.2,0.4,3,1.2
		c0.8,0.8,1.2,1.8,1.2,3.1s-0.4,2.3-1.2,3.1s-1.8,1.2-3,1.2S251.8,21.8,251,21z M256.3,20.3c0.6-0.6,0.9-1.4,0.9-2.5
		c0-1-0.3-1.8-0.9-2.5c-0.6-0.6-1.3-1-2.2-1s-1.6,0.3-2.2,1c-0.6,0.6-0.9,1.4-0.9,2.5s0.3,1.8,0.9,2.5c0.6,0.6,1.3,1,2.2,1
		S255.7,20.9,256.3,20.3z"/>
	<path class="st1" d="M261.7,8.9V22h-1.1V8.9H261.7z"/>
	<path class="st1" d="M271.5,17.9h-6.3l0,0c0,1,0.3,1.8,0.9,2.4c0.6,0.6,1.4,0.9,2.2,0.9c1,0,2-0.3,2.9-1v1.1
		c-0.7,0.6-1.7,0.8-2.9,0.8c-1.3,0-2.2-0.4-3-1.2c-0.8-0.8-1.2-1.8-1.2-3.2c0-1.3,0.4-2.3,1.1-3.1c0.7-0.8,1.7-1.3,2.8-1.3
		c1,0,1.9,0.3,2.6,1c0.6,0.6,1,1.5,1,2.7L271.5,17.9L271.5,17.9z M265.2,16.9h5.1c-0.1-1.6-0.9-2.5-2.4-2.5c-0.6,0-1.2,0.2-1.7,0.6
		C265.7,15.6,265.4,16.1,265.2,16.9z"/>
</g>
<g id="Layer_2">
</g>
</svg>
